<?xml version="1.0" encoding="UTF-8" standalone="no"?>
<svg xmlns="http://www.w3.org/2000/svg" width="2048" height="512" viewBox="0 0 2048 512" version="1.1">
  <title>IQSEA logo</title>
  <desc>IQSEA logo with wave motif and optional tagline, rebuilt as a clean vector SVG on a transparent background.</desc>
  <g fill-rule="nonzero" stroke="none">
    <path d="M 334.449 101.620 L 307.551 101.620 L 307.551 278.380 L 334.449 278.380 L 334.449 101.620 Z" fill="#011941"/>
    <path d="M 725.027 183.401 C 724.919 130.743 694.349 97.683 649.235 97.683 C 603.759 97.683 572.973 130.743 572.973 183.401 C 572.973 236.058 603.759 269.118 649.235 269.118 C 661.758 269.118 673.019 266.628 682.944 261.900 L 697.958 281.317 L 723.547 281.317 L 699.763 250.387 C 715.787 235.517 725.027 212.490 725.027 183.401 Z M 645.842 212.599 L 668.724 242.627 C 662.985 245.081 656.453 246.344 649.235 246.344 C 617.438 246.344 598.598 222.199 598.815 183.401 C 598.598 144.602 617.438 120.457 649.126 120.457 C 680.454 120.457 699.402 144.602 699.546 183.401 C 699.546 203.937 694.241 220.286 684.640 231.222 L 670.420 212.599 L 645.842 212.599 Z" fill="#011941"/>
    <path d="M 1018.269 276.835 C 1057.689 276.835 1081.812 257.419 1081.812 226.383 C 1081.812 198.215 1061.146 186.742 1035.405 180.307 L 1020.696 176.630 C 1005.876 172.952 981.974 169.165 981.974 151.587 C 981.974 135.260 994.587 124.228 1016.209 124.228 C 1038.273 124.228 1051.144 136.510 1052.394 155.265 L 1077.583 155.265 C 1076.774 123.088 1054.012 102.165 1016.761 102.165 C 979.326 102.165 955.755 121.912 955.755 152.249 C 955.755 180.196 978.848 190.530 1001.721 196.266 L 1020.585 200.973 C 1038.273 205.459 1055.740 207.776 1055.740 226.971 C 1055.740 243.262 1041.840 254.441 1018.747 254.441 C 993.337 254.441 977.929 240.504 977.819 218.220 L 952.188 218.220 C 952.188 254.992 977.488 276.835 1018.269 276.835 Z" fill="#011941"/>
    <path d="M 1300.496 278.380 L 1416.504 278.380 L 1416.504 254.594 L 1327.394 254.594 L 1327.394 200.068 L 1405.207 200.068 L 1405.207 177.281 L 1327.394 177.281 L 1327.394 125.406 L 1414.813 125.406 L 1414.813 101.620 L 1300.496 101.620 L 1300.496 278.380 Z" fill="#011941"/>
    <path d="M 1623.997 278.380 L 1652.317 278.380 L 1669.263 229.387 L 1738.661 229.387 L 1755.338 278.380 L 1785.003 278.380 L 1721.138 101.620 L 1687.746 101.620 L 1623.997 278.380 Z M 1676.948 207.061 L 1703.962 128.634 L 1704.423 128.634 L 1731.091 207.061 L 1676.948 207.061 Z" fill="#011941"/>
    <path d="M 713.107 325.572 L 708.683 325.754 L 704.259 325.950 L 699.835 326.161 L 695.412 326.387 L 690.990 326.627 L 686.569 326.883 L 682.149 327.154 L 677.730 327.439 L 673.311 327.740 L 668.894 328.056 L 664.478 328.388 L 660.064 328.734 L 655.650 329.096 L 651.239 329.473 L 646.828 329.866 L 642.419 330.274 L 638.012 330.698 L 633.607 331.137 L 629.203 331.592 L 624.801 332.062 L 620.401 332.549 L 616.003 333.051 L 611.607 333.569 L 607.214 334.102 L 602.822 334.652 L 598.433 335.218 L 594.046 335.799 L 589.661 336.397 L 585.279 337.011 L 580.899 337.641 L 576.522 338.287 L 572.148 338.950 L 567.777 339.629 L 563.408 340.324 L 559.042 341.036 L 554.680 341.764 L 550.320 342.509 L 545.963 343.270 L 541.610 344.048 L 537.260 344.843 L 532.913 345.655 L 528.569 346.483 L 524.229 347.328 L 519.893 348.190 L 515.560 349.069 L 511.231 349.965 L 506.906 350.877 L 502.584 351.807 L 498.266 352.755 L 493.953 353.719 L 489.643 354.701 L 485.338 355.699 L 481.036 356.716 L 476.739 357.749 L 472.446 358.800 L 468.158 359.869 L 463.874 360.955 L 459.595 362.059 L 455.320 363.180 L 451.050 364.319 L 446.784 365.476 L 442.524 366.651 L 438.268 367.843 L 434.017 369.053 L 429.772 370.282 L 425.531 371.528 L 421.296 372.792 L 417.066 374.075 L 412.841 375.375 L 408.621 376.694 L 404.407 378.031 L 400.199 379.387 L 395.996 380.760 L 391.799 382.153 L 387.608 383.563 L 383.422 384.992 L 379.242 386.440 L 375.068 387.906 L 370.901 389.391 L 366.739 390.895 L 362.583 392.417 L 358.434 393.959 L 354.291 395.519 L 350.155 397.098 L 346.024 398.696 L 341.901 400.313 L 337.784 401.949 L 333.673 403.604 L 329.570 405.278 L 325.470 406.970 L 321.357 408.669 L 317.211 410.362 L 313.008 412.036 L 308.730 413.679 L 304.354 415.277 L 299.902 416.840 L 295.540 418.454 L 291.462 420.221 L 287.865 422.244 L 284.943 424.622 L 282.891 427.459 L 282.184 430.451 L 284.080 432.122 L 288.368 431.931 L 293.076 430.647 L 297.428 428.890 L 301.660 427.086 L 305.877 425.390 L 310.084 423.790 L 314.285 422.266 L 318.483 420.800 L 322.681 419.376 L 326.881 417.977 L 331.086 416.598 L 335.294 415.239 L 339.507 413.900 L 343.723 412.581 L 347.944 411.281 L 352.169 410.000 L 356.397 408.738 L 360.631 407.494 L 364.868 406.268 L 369.110 405.060 L 373.356 403.870 L 377.607 402.696 L 381.862 401.540 L 386.122 400.399 L 390.386 399.276 L 394.655 398.168 L 398.929 397.075 L 403.208 395.998 L 407.492 394.936 L 411.781 393.889 L 416.074 392.856 L 420.373 391.837 L 424.677 390.833 L 428.986 389.842 L 433.300 388.865 L 437.618 387.903 L 441.941 386.955 L 446.269 386.022 L 450.601 385.103 L 454.937 384.199 L 459.277 383.311 L 463.622 382.437 L 467.970 381.578 L 472.323 380.735 L 476.679 379.908 L 481.038 379.096 L 485.402 378.300 L 489.768 377.520 L 494.138 376.755 L 498.511 376.007 L 502.887 375.276 L 507.266 374.560 L 511.648 373.862 L 516.032 373.179 L 520.419 372.514 L 524.809 371.866 L 529.200 371.235 L 533.595 370.621 L 537.991 370.024 L 542.389 369.445 L 546.789 368.883 L 551.191 368.339 L 555.595 367.813 L 560.000 367.305 L 564.407 366.815 L 568.815 366.344 L 573.224 365.891 L 577.635 365.456 L 582.046 365.040 L 586.458 364.643 L 590.872 364.264 L 595.285 363.905 L 599.700 363.565 L 604.114 363.244 L 608.529 362.943 L 612.945 362.661 L 617.361 362.398 L 621.777 362.154 L 626.193 361.928 L 630.609 361.722 L 635.026 361.534 L 639.443 361.364 L 643.859 361.212 L 648.276 361.079 L 652.694 360.964 L 657.111 360.866 L 661.528 360.786 L 665.945 360.724 L 670.362 360.679 L 674.779 360.651 L 679.196 360.640 L 683.613 360.647 L 688.030 360.670 L 692.447 360.710 L 696.863 360.766 L 701.279 360.839 L 705.695 360.928 L 710.111 361.033 L 714.527 361.154 L 718.942 361.290 L 723.357 361.443 L 727.771 361.611 L 732.185 361.794 L 736.599 361.993 L 741.012 362.206 L 745.425 362.435 L 749.837 362.678 L 754.248 362.937 L 758.660 363.209 L 763.070 363.496 L 767.480 363.797 L 771.889 364.113 L 776.298 364.442 L 780.706 364.785 L 785.113 365.142 L 789.520 365.512 L 793.926 365.896 L 798.331 366.293 L 802.735 366.703 L 807.138 367.126 L 811.541 367.561 L 815.942 368.010 L 820.343 368.471 L 824.743 368.944 L 829.141 369.429 L 833.539 369.927 L 837.936 370.437 L 842.332 370.958 L 846.726 371.491 L 851.120 372.035 L 855.512 372.591 L 859.903 373.158 L 864.293 373.737 L 868.682 374.326 L 873.070 374.926 L 877.456 375.536 L 881.841 376.157 L 886.225 376.789 L 890.607 377.431 L 894.988 378.082 L 899.368 378.744 L 903.746 379.416 L 908.123 380.097 L 912.498 380.788 L 916.872 381.488 L 921.244 382.197 L 925.615 382.915 L 929.984 383.643 L 934.351 384.379 L 938.717 385.124 L 943.081 385.877 L 947.444 386.639 L 951.805 387.408 L 956.164 388.186 L 960.521 388.972 L 964.877 389.766 L 969.230 390.567 L 973.582 391.376 L 977.932 392.192 L 982.281 393.016 L 986.627 393.846 L 990.971 394.683 L 995.314 395.525 L 999.656 396.373 L 1003.996 397.226 L 1008.335 398.083 L 1012.673 398.944 L 1017.009 399.808 L 1021.345 400.676 L 1025.680 401.546 L 1030.014 402.418 L 1034.348 403.292 L 1038.681 404.167 L 1043.014 405.042 L 1047.346 405.918 L 1051.678 406.793 L 1056.010 407.667 L 1060.343 408.540 L 1064.675 409.411 L 1069.008 410.280 L 1073.341 411.146 L 1077.674 412.009 L 1082.008 412.868 L 1086.343 413.723 L 1090.678 414.573 L 1095.015 415.419 L 1099.353 416.258 L 1103.691 417.092 L 1108.031 417.918 L 1112.372 418.738 L 1116.715 419.550 L 1121.060 420.355 L 1125.406 421.150 L 1129.754 421.937 L 1134.103 422.714 L 1138.455 423.481 L 1142.809 424.238 L 1147.165 424.984 L 1151.524 425.719 L 1155.885 426.442 L 1160.248 427.152 L 1164.614 427.850 L 1168.983 428.534 L 1173.355 429.204 L 1177.730 429.861 L 1182.108 430.503 L 1186.488 431.131 L 1190.871 431.745 L 1195.256 432.345 L 1199.645 432.929 L 1204.035 433.500 L 1208.428 434.055 L 1212.823 434.596 L 1217.220 435.122 L 1221.620 435.633 L 1226.021 436.129 L 1230.425 436.610 L 1234.830 437.075 L 1239.237 437.525 L 1243.646 437.960 L 1248.056 438.379 L 1252.468 438.782 L 1256.882 439.170 L 1261.297 439.542 L 1265.713 439.898 L 1270.130 440.237 L 1274.549 440.561 L 1278.969 440.869 L 1283.389 441.160 L 1287.811 441.435 L 1292.234 441.693 L 1296.657 441.935 L 1301.081 442.160 L 1305.506 442.368 L 1309.931 442.559 L 1314.356 442.733 L 1318.782 442.891 L 1323.209 443.031 L 1327.635 443.153 L 1332.062 443.259 L 1336.489 443.347 L 1340.915 443.417 L 1345.342 443.470 L 1349.769 443.505 L 1354.195 443.522 L 1358.621 443.522 L 1363.046 443.503 L 1367.471 443.466 L 1371.896 443.411 L 1376.320 443.337 L 1380.743 443.245 L 1385.165 443.134 L 1389.586 443.004 L 1394.007 442.856 L 1398.426 442.688 L 1402.844 442.501 L 1407.260 442.295 L 1411.676 442.070 L 1416.090 441.825 L 1420.502 441.560 L 1424.913 441.276 L 1429.322 440.971 L 1433.729 440.647 L 1438.135 440.303 L 1442.538 439.938 L 1446.940 439.553 L 1451.339 439.147 L 1455.736 438.721 L 1460.131 438.274 L 1464.523 437.806 L 1468.913 437.317 L 1473.300 436.807 L 1477.685 436.276 L 1482.067 435.723 L 1486.446 435.149 L 1490.822 434.553 L 1495.196 433.935 L 1499.566 433.296 L 1503.933 432.635 L 1508.297 431.951 L 1512.657 431.245 L 1517.014 430.517 L 1521.367 429.767 L 1525.717 428.993 L 1530.063 428.197 L 1534.406 427.379 L 1538.744 426.537 L 1543.079 425.672 L 1547.410 424.784 L 1551.736 423.873 L 1556.058 422.938 L 1560.376 421.981 L 1564.690 421.001 L 1568.998 419.998 L 1573.303 418.973 L 1577.602 417.925 L 1581.896 416.856 L 1586.186 415.765 L 1590.470 414.652 L 1594.749 413.518 L 1599.022 412.362 L 1603.290 411.186 L 1607.552 409.988 L 1611.809 408.770 L 1616.060 407.531 L 1620.305 406.272 L 1624.543 404.992 L 1628.776 403.693 L 1633.002 402.374 L 1637.221 401.035 L 1641.435 399.677 L 1645.641 398.300 L 1649.841 396.903 L 1654.033 395.486 L 1658.218 394.049 L 1662.395 392.591 L 1666.563 391.111 L 1670.724 389.610 L 1674.875 388.087 L 1679.018 386.541 L 1683.151 384.972 L 1687.274 383.379 L 1691.387 381.762 L 1695.490 380.120 L 1699.582 378.454 L 1703.663 376.762 L 1707.733 375.044 L 1711.792 373.300 L 1715.838 371.529 L 1719.872 369.730 L 1723.894 367.904 L 1727.903 366.049 L 1731.899 364.166 L 1735.881 362.254 L 1739.849 360.312 L 1743.807 358.344 L 1747.765 356.361 L 1751.732 354.377 L 1755.721 352.404 L 1759.741 350.453 L 1763.804 348.538 L 1767.899 346.645 L 1771.972 344.702 L 1775.961 342.631 L 1779.805 340.351 L 1783.443 337.785 L 1786.814 334.853 L 1789.482 331.748 L 1789.677 329.643 L 1786.608 329.342 L 1782.205 330.385 L 1777.802 332.190 L 1773.491 334.226 L 1769.268 336.183 L 1765.115 338.052 L 1761.013 339.846 L 1756.942 341.580 L 1752.884 343.265 L 1748.819 344.916 L 1744.739 346.538 L 1740.643 348.133 L 1736.532 349.700 L 1732.406 351.240 L 1728.267 352.752 L 1724.114 354.238 L 1719.948 355.698 L 1715.769 357.131 L 1711.579 358.538 L 1707.377 359.919 L 1703.165 361.274 L 1698.942 362.605 L 1694.709 363.910 L 1690.467 365.190 L 1686.216 366.446 L 1681.957 367.677 L 1677.690 368.884 L 1673.416 370.068 L 1669.136 371.227 L 1664.849 372.363 L 1660.556 373.476 L 1656.258 374.566 L 1651.956 375.634 L 1647.649 376.679 L 1643.338 377.701 L 1639.023 378.701 L 1634.704 379.679 L 1630.380 380.635 L 1626.052 381.568 L 1621.721 382.480 L 1617.386 383.370 L 1613.047 384.239 L 1608.704 385.086 L 1604.357 385.911 L 1600.007 386.716 L 1595.654 387.499 L 1591.297 388.261 L 1586.937 389.002 L 1582.574 389.722 L 1578.207 390.421 L 1573.837 391.100 L 1569.465 391.758 L 1565.089 392.396 L 1560.711 393.014 L 1556.330 393.611 L 1551.946 394.188 L 1547.559 394.746 L 1543.170 395.283 L 1538.779 395.801 L 1534.385 396.299 L 1529.989 396.778 L 1525.591 397.237 L 1521.190 397.677 L 1516.787 398.098 L 1512.383 398.500 L 1507.976 398.883 L 1503.568 399.247 L 1499.158 399.592 L 1494.746 399.919 L 1490.333 400.227 L 1485.918 400.517 L 1481.501 400.788 L 1477.083 401.042 L 1472.664 401.277 L 1468.244 401.494 L 1463.823 401.694 L 1459.400 401.876 L 1454.977 402.040 L 1450.552 402.186 L 1446.127 402.314 L 1441.701 402.425 L 1437.275 402.518 L 1432.848 402.593 L 1428.420 402.651 L 1423.993 402.691 L 1419.564 402.713 L 1415.136 402.718 L 1410.708 402.705 L 1406.279 402.675 L 1401.851 402.627 L 1397.423 402.562 L 1392.995 402.480 L 1388.567 402.380 L 1384.140 402.262 L 1379.713 402.128 L 1375.287 401.976 L 1370.861 401.807 L 1366.437 401.620 L 1362.013 401.416 L 1357.590 401.195 L 1353.168 400.957 L 1348.747 400.702 L 1344.327 400.430 L 1339.909 400.140 L 1335.492 399.834 L 1331.076 399.510 L 1326.662 399.170 L 1322.249 398.812 L 1317.839 398.437 L 1313.430 398.046 L 1309.023 397.638 L 1304.617 397.212 L 1300.214 396.770 L 1295.813 396.312 L 1291.414 395.836 L 1287.018 395.344 L 1282.624 394.834 L 1278.232 394.309 L 1273.843 393.766 L 1269.456 393.208 L 1265.072 392.633 L 1260.690 392.044 L 1256.310 391.439 L 1251.933 390.821 L 1247.557 390.188 L 1243.184 389.541 L 1238.813 388.882 L 1234.443 388.210 L 1230.076 387.526 L 1225.710 386.830 L 1221.346 386.123 L 1216.983 385.405 L 1212.622 384.676 L 1208.262 383.938 L 1203.904 383.190 L 1199.547 382.433 L 1195.192 381.667 L 1190.838 380.893 L 1186.484 380.111 L 1182.132 379.322 L 1177.781 378.526 L 1173.431 377.724 L 1169.081 376.916 L 1164.733 376.102 L 1160.385 375.283 L 1156.037 374.459 L 1151.691 373.631 L 1147.345 372.800 L 1142.999 371.965 L 1138.653 371.127 L 1134.308 370.286 L 1129.963 369.444 L 1125.618 368.600 L 1121.274 367.755 L 1116.929 366.909 L 1112.584 366.063 L 1108.239 365.218 L 1103.894 364.373 L 1099.549 363.529 L 1095.203 362.686 L 1090.857 361.846 L 1086.510 361.008 L 1082.163 360.172 L 1077.815 359.340 L 1073.467 358.511 L 1069.118 357.686 L 1064.768 356.865 L 1060.417 356.048 L 1056.066 355.236 L 1051.714 354.429 L 1047.362 353.626 L 1043.008 352.829 L 1038.654 352.038 L 1034.299 351.252 L 1029.943 350.473 L 1025.586 349.700 L 1021.228 348.935 L 1016.869 348.176 L 1012.509 347.424 L 1008.148 346.680 L 1003.786 345.944 L 999.423 345.217 L 995.059 344.497 L 990.693 343.787 L 986.327 343.085 L 981.959 342.393 L 977.590 341.710 L 973.220 341.038 L 968.848 340.375 L 964.475 339.723 L 960.101 339.082 L 955.726 338.451 L 951.349 337.832 L 946.970 337.225 L 942.590 336.629 L 938.209 336.046 L 933.826 335.475 L 929.442 334.916 L 925.056 334.371 L 920.668 333.839 L 916.279 333.320 L 911.889 332.816 L 907.496 332.325 L 903.102 331.849 L 898.706 331.387 L 894.308 330.940 L 889.909 330.509 L 885.508 330.093 L 881.105 329.692 L 876.700 329.306 L 872.294 328.935 L 867.887 328.579 L 863.478 328.239 L 859.067 327.913 L 854.656 327.603 L 850.243 327.307 L 845.828 327.027 L 841.413 326.762 L 836.997 326.512 L 832.579 326.277 L 828.160 326.057 L 823.741 325.852 L 819.321 325.662 L 814.899 325.487 L 810.477 325.327 L 806.055 325.182 L 801.631 325.051 L 797.207 324.936 L 792.783 324.836 L 788.357 324.751 L 783.932 324.680 L 779.506 324.625 L 775.080 324.584 L 770.653 324.558 L 766.226 324.548 L 761.799 324.552 L 757.372 324.570 L 752.945 324.604 L 748.518 324.653 L 744.091 324.716 L 739.664 324.794 L 735.237 324.887 L 730.811 324.994 L 726.384 325.117 L 721.958 325.254 L 717.533 325.406 L 713.107 325.572 Z" fill="#038FAB"/>
  </g>
</svg>