<?xml version="1.0" encoding="UTF-8" standalone="no"?>
<svg xmlns="http://www.w3.org/2000/svg" width="1672" height="941" viewBox="0 0 1672 941" version="1.1">
  <title>IQSEA logo</title>
  <desc>IQSEA logo with wave motif and optional tagline, rebuilt as a clean vector SVG on a transparent background.</desc>
  <g fill-rule="nonzero" stroke="none">
    <path d="M 338.820 278.969 L 319.180 278.969 L 319.180 408.031 L 338.820 408.031 L 338.820 278.969 Z" fill="#011941"/>
    <path d="M 623.325 338.901 C 623.243 299.197 600.194 274.269 566.177 274.269 C 531.888 274.269 508.675 299.197 508.675 338.901 C 508.675 378.605 531.888 403.533 566.177 403.533 C 575.620 403.533 584.111 401.655 591.594 398.090 L 602.915 412.731 L 622.209 412.731 L 604.276 389.409 C 616.358 378.197 623.325 360.835 623.325 338.901 Z M 563.619 360.917 L 580.872 383.558 C 576.545 385.409 571.620 386.361 566.177 386.361 C 542.202 386.361 527.996 368.155 528.160 338.901 C 527.996 309.646 542.202 291.441 566.095 291.441 C 589.717 291.441 604.004 309.646 604.112 338.901 C 604.112 354.385 600.112 366.713 592.873 374.959 L 582.151 360.917 L 563.619 360.917 Z" fill="#011941"/>
    <path d="M 840.961 409.663 C 870.825 409.663 889.100 394.954 889.100 371.442 C 889.100 350.102 873.444 341.411 853.943 336.535 L 842.800 333.750 C 831.573 330.964 813.465 328.094 813.465 314.778 C 813.465 302.409 823.020 294.052 839.401 294.052 C 856.116 294.052 865.866 303.356 866.813 317.564 L 885.896 317.564 C 885.283 293.188 868.039 277.337 839.819 277.337 C 811.459 277.337 793.602 292.297 793.602 315.280 C 793.602 336.452 811.097 344.280 828.425 348.626 L 842.716 352.192 C 856.116 355.590 869.349 357.346 869.349 371.887 C 869.349 384.229 858.818 392.698 841.323 392.698 C 822.073 392.698 810.401 382.139 810.317 365.257 L 790.900 365.257 C 790.900 393.115 810.066 409.663 840.961 409.663 Z" fill="#011941"/>
    <path d="M 1044.175 410.776 L 1131.825 410.776 L 1131.825 392.805 L 1064.498 392.805 L 1064.498 351.607 L 1123.290 351.607 L 1123.290 334.390 L 1064.498 334.390 L 1064.498 295.195 L 1130.548 295.195 L 1130.548 277.224 L 1044.175 277.224 L 1044.175 410.776 Z" fill="#011941"/>
    <path d="M 1266.229 410.767 L 1287.783 410.767 L 1300.681 373.478 L 1353.500 373.478 L 1366.193 410.767 L 1388.771 410.767 L 1340.164 276.233 L 1314.749 276.233 L 1266.229 410.767 Z M 1306.530 356.485 L 1327.091 296.793 L 1327.442 296.793 L 1347.739 356.485 L 1306.530 356.485 Z" fill="#011941"/>
    <path d="M 646.317 459.956 L 643.146 460.050 L 639.973 460.160 L 636.799 460.286 L 633.625 460.429 L 630.451 460.587 L 627.276 460.760 L 624.100 460.949 L 620.924 461.153 L 617.748 461.371 L 614.571 461.604 L 611.395 461.851 L 608.218 462.113 L 605.042 462.388 L 601.866 462.676 L 598.690 462.978 L 595.514 463.292 L 592.339 463.620 L 589.164 463.960 L 585.990 464.312 L 582.817 464.677 L 579.644 465.053 L 576.473 465.440 L 573.302 465.839 L 570.132 466.249 L 566.964 466.670 L 563.796 467.102 L 560.630 467.543 L 557.465 467.995 L 554.302 468.457 L 551.140 468.928 L 547.980 469.408 L 544.822 469.898 L 541.665 470.397 L 538.511 470.904 L 535.358 471.419 L 532.207 471.942 L 529.059 472.474 L 525.913 473.013 L 522.769 473.559 L 519.627 474.113 L 516.488 474.673 L 513.352 475.240 L 510.218 475.813 L 507.087 476.393 L 503.959 476.978 L 500.834 477.570 L 497.711 478.169 L 494.592 478.774 L 491.475 479.387 L 488.362 480.007 L 485.251 480.636 L 482.144 481.272 L 479.040 481.917 L 475.938 482.571 L 472.840 483.235 L 469.746 483.907 L 466.654 484.590 L 463.566 485.282 L 460.481 485.985 L 457.399 486.699 L 454.321 487.424 L 451.246 488.160 L 448.175 488.908 L 445.107 489.667 L 442.042 490.440 L 438.981 491.224 L 435.924 492.022 L 432.870 492.833 L 429.820 493.658 L 426.774 494.496 L 423.731 495.349 L 420.693 496.216 L 417.657 497.098 L 414.626 497.995 L 411.599 498.908 L 408.575 499.836 L 405.556 500.780 L 402.540 501.741 L 399.528 502.719 L 396.521 503.713 L 393.517 504.725 L 390.518 505.755 L 387.522 506.802 L 384.531 507.868 L 381.544 508.953 L 378.561 510.056 L 375.583 511.179 L 372.608 512.321 L 369.639 513.483 L 366.672 514.663 L 363.707 515.859 L 360.740 517.066 L 357.768 518.280 L 354.790 519.497 L 351.801 520.712 L 348.800 521.923 L 345.784 523.124 L 342.750 524.311 L 339.695 525.482 L 336.617 526.631 L 333.512 527.754 L 330.393 528.858 L 327.335 529.998 L 324.429 531.240 L 321.770 532.653 L 319.451 534.304 L 317.564 536.262 L 316.251 538.530 L 316.060 540.577 L 317.571 541.700 L 320.257 541.854 L 323.285 541.273 L 326.400 540.308 L 329.523 539.282 L 332.636 538.263 L 335.742 537.250 L 338.840 536.246 L 341.931 535.250 L 345.016 534.262 L 348.095 533.282 L 351.169 532.312 L 354.238 531.351 L 357.303 530.399 L 360.365 529.458 L 363.424 528.526 L 366.480 527.606 L 369.535 526.696 L 372.589 525.798 L 375.643 524.911 L 378.697 524.036 L 381.751 523.173 L 384.807 522.323 L 387.864 521.486 L 390.924 520.662 L 393.987 519.852 L 397.054 519.055 L 400.124 518.272 L 403.197 517.503 L 406.274 516.747 L 409.353 516.005 L 412.437 515.276 L 415.523 514.560 L 418.612 513.858 L 421.705 513.169 L 424.801 512.493 L 427.899 511.829 L 431.001 511.179 L 434.105 510.542 L 437.213 509.918 L 440.323 509.306 L 443.436 508.707 L 446.551 508.121 L 449.670 507.547 L 452.790 506.985 L 455.914 506.436 L 459.040 505.899 L 462.168 505.375 L 465.299 504.862 L 468.432 504.362 L 471.567 503.874 L 474.705 503.397 L 477.845 502.932 L 480.987 502.480 L 484.132 502.038 L 487.278 501.609 L 490.426 501.191 L 493.576 500.784 L 496.729 500.389 L 499.883 500.006 L 503.039 499.633 L 506.197 499.272 L 509.356 498.922 L 512.517 498.582 L 515.680 498.254 L 518.844 497.937 L 522.010 497.630 L 525.178 497.334 L 528.347 497.049 L 531.517 496.775 L 534.688 496.511 L 537.861 496.258 L 541.035 496.016 L 544.210 495.785 L 547.386 495.564 L 550.563 495.354 L 553.741 495.155 L 556.920 494.967 L 560.100 494.790 L 563.280 494.624 L 566.461 494.469 L 569.642 494.324 L 572.825 494.191 L 576.007 494.069 L 579.190 493.957 L 582.373 493.857 L 585.556 493.768 L 588.740 493.689 L 591.924 493.622 L 595.107 493.566 L 598.291 493.522 L 601.475 493.488 L 604.658 493.466 L 607.841 493.455 L 611.024 493.455 L 614.207 493.466 L 617.389 493.489 L 620.570 493.522 L 623.751 493.568 L 626.932 493.624 L 630.111 493.692 L 633.290 493.772 L 636.469 493.862 L 639.646 493.965 L 642.822 494.078 L 645.997 494.203 L 649.171 494.340 L 652.344 494.488 L 655.516 494.648 L 658.687 494.819 L 661.856 495.002 L 665.023 495.197 L 668.190 495.403 L 671.355 495.620 L 674.518 495.849 L 677.680 496.088 L 680.841 496.339 L 684.000 496.600 L 687.159 496.871 L 690.316 497.153 L 693.472 497.446 L 696.626 497.748 L 699.780 498.060 L 702.933 498.382 L 706.084 498.713 L 709.235 499.053 L 712.384 499.403 L 715.533 499.762 L 718.680 500.130 L 721.827 500.506 L 724.973 500.891 L 728.118 501.284 L 731.262 501.686 L 734.405 502.095 L 737.548 502.512 L 740.690 502.937 L 743.831 503.370 L 746.972 503.810 L 750.112 504.257 L 753.252 504.711 L 756.391 505.172 L 759.529 505.640 L 762.667 506.114 L 765.805 506.594 L 768.942 507.081 L 772.078 507.574 L 775.215 508.072 L 778.351 508.577 L 781.487 509.087 L 784.622 509.602 L 787.757 510.122 L 790.892 510.648 L 794.027 511.178 L 797.162 511.713 L 800.297 512.253 L 803.431 512.796 L 806.566 513.344 L 809.700 513.896 L 812.834 514.451 L 815.969 515.009 L 819.103 515.570 L 822.237 516.135 L 825.371 516.701 L 828.505 517.271 L 831.640 517.842 L 834.774 518.415 L 837.908 518.990 L 841.042 519.566 L 844.177 520.144 L 847.311 520.722 L 850.446 521.301 L 853.580 521.881 L 856.715 522.461 L 859.850 523.040 L 862.985 523.620 L 866.120 524.199 L 869.256 524.777 L 872.391 525.355 L 875.527 525.931 L 878.663 526.506 L 881.799 527.079 L 884.935 527.651 L 888.072 528.220 L 891.209 528.787 L 894.346 529.351 L 897.483 529.913 L 900.621 530.471 L 903.759 531.026 L 906.897 531.578 L 910.036 532.125 L 913.175 532.669 L 916.314 533.209 L 919.454 533.744 L 922.594 534.274 L 925.734 534.800 L 928.875 535.320 L 932.016 535.835 L 935.158 536.344 L 938.300 536.847 L 941.443 537.344 L 944.586 537.835 L 947.730 538.319 L 950.874 538.797 L 954.018 539.267 L 957.163 539.730 L 960.309 540.185 L 963.455 540.633 L 966.602 541.073 L 969.749 541.504 L 972.897 541.927 L 976.046 542.341 L 979.195 542.747 L 982.344 543.143 L 985.495 543.530 L 988.646 543.907 L 991.797 544.274 L 994.950 544.631 L 998.103 544.977 L 1001.256 545.313 L 1004.411 545.638 L 1007.566 545.953 L 1010.722 546.255 L 1013.878 546.547 L 1017.036 546.826 L 1020.194 547.094 L 1023.353 547.349 L 1026.512 547.591 L 1029.673 547.821 L 1032.834 548.039 L 1035.996 548.242 L 1039.159 548.433 L 1042.323 548.610 L 1045.488 548.772 L 1048.654 548.921 L 1051.820 549.055 L 1054.988 549.175 L 1058.156 549.280 L 1061.326 549.370 L 1064.496 549.444 L 1067.667 549.503 L 1070.839 549.547 L 1074.012 549.575 L 1077.186 549.587 L 1080.360 549.584 L 1083.535 549.565 L 1086.710 549.531 L 1089.885 549.481 L 1093.061 549.416 L 1096.237 549.335 L 1099.413 549.239 L 1102.589 549.128 L 1105.765 549.001 L 1108.940 548.858 L 1112.116 548.701 L 1115.291 548.528 L 1118.465 548.339 L 1121.639 548.135 L 1124.812 547.916 L 1127.985 547.682 L 1131.156 547.432 L 1134.327 547.167 L 1137.496 546.887 L 1140.665 546.591 L 1143.832 546.281 L 1146.998 545.955 L 1150.162 545.614 L 1153.325 545.257 L 1156.487 544.886 L 1159.647 544.499 L 1162.805 544.097 L 1165.961 543.680 L 1169.115 543.248 L 1172.267 542.801 L 1175.417 542.339 L 1178.565 541.861 L 1181.710 541.369 L 1184.853 540.861 L 1187.994 540.339 L 1191.132 539.801 L 1194.267 539.249 L 1197.400 538.681 L 1200.529 538.098 L 1203.656 537.501 L 1206.779 536.889 L 1209.900 536.261 L 1213.017 535.619 L 1216.131 534.962 L 1219.241 534.290 L 1222.348 533.603 L 1225.452 532.901 L 1228.552 532.184 L 1231.647 531.453 L 1234.739 530.706 L 1237.828 529.945 L 1240.912 529.169 L 1243.991 528.379 L 1247.067 527.573 L 1250.138 526.753 L 1253.205 525.918 L 1256.267 525.068 L 1259.325 524.204 L 1262.378 523.325 L 1265.426 522.431 L 1268.470 521.523 L 1271.508 520.600 L 1274.542 519.662 L 1277.570 518.710 L 1280.593 517.743 L 1283.610 516.762 L 1286.622 515.766 L 1289.629 514.755 L 1292.630 513.730 L 1295.625 512.690 L 1298.615 511.636 L 1301.598 510.568 L 1304.576 509.484 L 1307.548 508.387 L 1310.513 507.275 L 1313.472 506.148 L 1316.425 505.007 L 1319.371 503.852 L 1322.311 502.682 L 1325.244 501.498 L 1328.171 500.300 L 1331.091 499.087 L 1334.003 497.860 L 1336.909 496.618 L 1339.808 495.362 L 1342.700 494.092 L 1345.586 492.809 L 1348.468 491.513 L 1351.349 490.207 L 1354.232 488.891 L 1357.117 487.567 L 1360.008 486.237 L 1362.907 484.901 L 1365.817 483.562 L 1368.738 482.219 L 1371.675 480.876 L 1374.628 479.532 L 1377.600 478.190 L 1380.584 476.841 L 1383.540 475.445 L 1386.425 473.960 L 1389.196 472.341 L 1391.809 470.547 L 1394.221 468.532 L 1396.315 466.287 L 1397.418 464.057 L 1396.750 462.218 L 1394.638 461.298 L 1391.839 461.693 L 1388.755 462.875 L 1385.636 464.170 L 1382.533 465.435 L 1379.447 466.670 L 1376.376 467.877 L 1373.318 469.056 L 1370.273 470.210 L 1367.239 471.338 L 1364.216 472.442 L 1361.201 473.523 L 1358.195 474.583 L 1355.195 475.621 L 1352.200 476.640 L 1349.209 477.640 L 1346.222 478.623 L 1343.236 479.589 L 1340.251 480.540 L 1337.265 481.477 L 1334.277 482.400 L 1331.287 483.311 L 1328.292 484.212 L 1325.292 485.102 L 1322.285 485.983 L 1319.271 486.857 L 1316.249 487.722 L 1313.219 488.580 L 1310.183 489.429 L 1307.139 490.269 L 1304.088 491.100 L 1301.031 491.922 L 1297.967 492.734 L 1294.897 493.537 L 1291.821 494.329 L 1288.739 495.112 L 1285.651 495.883 L 1282.558 496.644 L 1279.460 497.394 L 1276.356 498.133 L 1273.247 498.860 L 1270.134 499.575 L 1267.016 500.278 L 1263.894 500.968 L 1260.767 501.646 L 1257.637 502.312 L 1254.503 502.964 L 1251.365 503.602 L 1248.224 504.227 L 1245.080 504.838 L 1241.932 505.435 L 1238.782 506.018 L 1235.630 506.586 L 1232.475 507.139 L 1229.318 507.676 L 1226.158 508.199 L 1222.997 508.705 L 1219.835 509.196 L 1216.670 509.670 L 1213.505 510.128 L 1210.339 510.569 L 1207.171 510.993 L 1204.004 511.400 L 1200.835 511.789 L 1197.667 512.161 L 1194.498 512.514 L 1191.329 512.849 L 1188.161 513.166 L 1184.993 513.464 L 1181.826 513.743 L 1178.659 514.005 L 1175.492 514.248 L 1172.326 514.474 L 1169.160 514.682 L 1165.995 514.873 L 1162.830 515.046 L 1159.665 515.202 L 1156.501 515.342 L 1153.337 515.465 L 1150.174 515.572 L 1147.011 515.662 L 1143.848 515.736 L 1140.686 515.795 L 1137.524 515.837 L 1134.362 515.865 L 1131.201 515.877 L 1128.040 515.874 L 1124.880 515.856 L 1121.720 515.824 L 1118.560 515.777 L 1115.401 515.716 L 1112.242 515.641 L 1109.084 515.552 L 1105.926 515.449 L 1102.768 515.333 L 1099.610 515.204 L 1096.453 515.061 L 1093.296 514.906 L 1090.140 514.738 L 1086.984 514.558 L 1083.828 514.365 L 1080.673 514.160 L 1077.518 513.943 L 1074.363 513.715 L 1071.209 513.475 L 1068.055 513.224 L 1064.901 512.962 L 1061.747 512.688 L 1058.594 512.405 L 1055.442 512.110 L 1052.289 511.805 L 1049.137 511.491 L 1045.985 511.166 L 1042.834 510.832 L 1039.683 510.488 L 1036.532 510.134 L 1033.381 509.772 L 1030.231 509.401 L 1027.081 509.021 L 1023.931 508.632 L 1020.782 508.235 L 1017.633 507.830 L 1014.484 507.417 L 1011.336 506.996 L 1008.188 506.568 L 1005.040 506.133 L 1001.892 505.690 L 998.745 505.240 L 995.598 504.784 L 992.451 504.321 L 989.305 503.851 L 986.158 503.376 L 983.013 502.894 L 979.867 502.407 L 976.721 501.914 L 973.576 501.416 L 970.431 500.913 L 967.287 500.404 L 964.142 499.891 L 960.998 499.373 L 957.854 498.851 L 954.711 498.325 L 951.568 497.795 L 948.424 497.260 L 945.282 496.723 L 942.139 496.182 L 938.997 495.637 L 935.854 495.090 L 932.713 494.540 L 929.571 493.987 L 926.429 493.432 L 923.288 492.875 L 920.147 492.315 L 917.006 491.754 L 913.866 491.191 L 910.726 490.627 L 907.585 490.061 L 904.445 489.495 L 901.306 488.928 L 898.166 488.360 L 895.027 487.792 L 891.887 487.223 L 888.748 486.655 L 885.609 486.087 L 882.470 485.520 L 879.331 484.953 L 876.192 484.387 L 873.054 483.822 L 869.915 483.259 L 866.776 482.697 L 863.637 482.137 L 860.499 481.579 L 857.360 481.023 L 854.221 480.469 L 851.083 479.918 L 847.944 479.370 L 844.805 478.825 L 841.666 478.284 L 838.527 477.745 L 835.388 477.211 L 832.248 476.680 L 829.109 476.154 L 825.969 475.631 L 822.829 475.114 L 819.689 474.601 L 816.549 474.093 L 813.409 473.590 L 810.268 473.093 L 807.128 472.601 L 803.987 472.115 L 800.845 471.635 L 797.704 471.162 L 794.562 470.694 L 791.420 470.234 L 788.277 469.780 L 785.134 469.334 L 781.991 468.895 L 778.848 468.463 L 775.704 468.039 L 772.560 467.623 L 769.415 467.215 L 766.270 466.816 L 763.124 466.425 L 759.978 466.043 L 756.832 465.670 L 753.685 465.306 L 750.538 464.952 L 747.390 464.607 L 744.242 464.273 L 741.093 463.948 L 737.943 463.634 L 734.793 463.330 L 731.643 463.037 L 728.492 462.754 L 725.340 462.483 L 722.188 462.224 L 719.035 461.975 L 715.882 461.739 L 712.727 461.515 L 709.573 461.303 L 706.417 461.103 L 703.261 460.916 L 700.104 460.742 L 696.947 460.581 L 693.788 460.433 L 690.629 460.299 L 687.469 460.178 L 684.309 460.072 L 681.147 459.979 L 677.985 459.901 L 674.822 459.837 L 671.659 459.789 L 668.494 459.755 L 665.329 459.736 L 662.162 459.733 L 658.995 459.746 L 655.827 459.774 L 652.658 459.818 L 649.488 459.879 L 646.317 459.956 Z" fill="#038FAB"/>
    <path d="M 543.054 595.299 L 560.297 623.357 L 560.297 643.020 L 566.068 643.020 L 566.068 623.357 L 583.311 595.299 L 576.699 595.299 L 563.464 617.576 L 562.901 617.576 L 549.666 595.299 L 543.054 595.299 Z M 604.558 643.768 C 614.256 643.768 620.776 636.408 620.776 625.315 C 620.776 614.131 614.256 606.770 604.558 606.770 C 594.870 606.770 588.340 614.131 588.340 625.315 C 588.340 636.408 594.870 643.768 604.558 643.768 Z M 604.558 638.827 C 597.198 638.827 593.845 632.492 593.845 625.315 C 593.845 618.139 597.198 611.701 604.558 611.701 C 611.919 611.701 615.281 618.139 615.281 625.315 C 615.281 632.492 611.919 638.827 604.558 638.827 Z M 651.717 628.391 C 651.717 635.095 646.591 638.171 642.491 638.171 C 637.929 638.171 634.659 634.819 634.659 629.601 L 634.659 607.232 L 629.164 607.232 L 629.164 629.970 C 629.164 639.104 634.013 643.481 640.717 643.481 C 646.130 643.481 649.667 640.601 651.348 636.961 L 651.717 636.961 L 651.717 643.020 L 657.212 643.020 L 657.212 607.232 L 651.717 607.232 L 651.717 628.391 Z M 667.281 643.020 L 672.776 643.020 L 672.776 620.374 C 672.776 615.525 676.599 611.988 681.817 611.988 C 683.283 611.988 684.801 612.265 685.170 612.358 L 685.170 606.770 C 684.544 606.719 683.099 606.678 682.289 606.678 C 677.994 606.678 674.272 609.098 672.970 612.634 L 672.591 612.634 L 672.591 607.232 L 667.281 607.232 L 667.281 643.020 Z M 710.899 595.299 L 710.899 643.020 L 716.302 643.020 L 716.302 606.770 L 716.763 606.770 L 731.679 643.020 L 736.897 643.020 L 751.813 606.770 L 752.274 606.770 L 752.274 643.020 L 757.677 643.020 L 757.677 595.299 L 750.788 595.299 L 734.570 634.911 L 734.006 634.911 L 717.788 595.299 L 710.899 595.299 Z M 779.020 643.861 C 785.263 643.861 788.533 640.508 789.651 638.171 L 789.927 638.171 L 789.927 643.020 L 795.422 643.020 L 795.422 619.441 C 795.422 608.072 786.760 606.770 782.187 606.770 C 776.785 606.770 770.634 608.626 767.835 615.156 L 773.053 617.022 C 774.273 614.408 777.133 611.609 782.382 611.609 C 787.436 611.609 789.927 614.295 789.927 618.878 L 789.927 619.072 C 789.927 621.727 787.221 621.492 780.701 622.332 C 774.058 623.193 766.810 624.659 766.810 632.861 C 766.810 639.852 772.223 643.861 779.020 643.861 Z M 779.860 638.919 C 775.483 638.919 772.315 636.961 772.315 633.137 C 772.315 628.945 776.129 627.643 780.424 627.079 C 782.751 626.802 788.995 626.156 789.927 625.028 L 789.927 630.062 C 789.927 634.542 786.380 638.919 779.860 638.919 Z M 805.490 643.020 L 810.985 643.020 L 810.985 620.374 C 810.985 615.525 814.809 611.988 820.027 611.988 C 821.493 611.988 823.010 612.265 823.379 612.358 L 823.379 606.770 C 822.754 606.719 821.308 606.678 820.498 606.678 C 816.203 606.678 812.482 609.098 811.180 612.634 L 810.800 612.634 L 810.800 607.232 L 805.490 607.232 L 805.490 643.020 Z M 829.907 643.020 L 835.402 643.020 L 835.402 607.232 L 829.907 607.232 L 829.907 643.020 Z M 832.706 601.265 C 834.849 601.265 836.622 599.594 836.622 597.544 C 836.622 595.494 834.849 593.812 832.706 593.812 C 830.564 593.812 828.790 595.494 828.790 597.544 C 828.790 599.594 830.564 601.265 832.706 601.265 Z M 861.033 607.232 L 853.396 607.232 L 853.396 598.661 L 847.891 598.661 L 847.891 607.232 L 842.488 607.232 L 842.488 611.896 L 847.891 611.896 L 847.891 634.255 C 847.891 640.508 852.924 643.481 857.588 643.481 C 859.639 643.481 860.941 643.112 861.689 642.835 L 860.572 637.894 C 860.100 637.986 859.362 638.171 858.142 638.171 C 855.723 638.171 853.396 637.433 853.396 632.768 L 853.396 611.896 L 861.033 611.896 L 861.033 607.232 Z M 869.329 643.020 L 874.824 643.020 L 874.824 607.232 L 869.329 607.232 L 869.329 643.020 Z M 872.128 601.265 C 874.271 601.265 876.044 599.594 876.044 597.544 C 876.044 595.494 874.271 593.812 872.128 593.812 C 869.985 593.812 868.212 595.494 868.212 597.544 C 868.212 599.594 869.985 601.265 872.128 601.265 Z M 884.893 643.020 L 890.388 643.020 L 890.388 620.651 C 890.388 615.412 894.212 611.701 898.497 611.701 C 902.669 611.701 905.581 614.428 905.581 618.508 L 905.581 643.020 L 911.178 643.020 L 911.178 619.718 C 911.178 615.105 914.059 611.701 919.092 611.701 C 923.008 611.701 926.360 613.782 926.360 619.072 L 926.360 643.020 L 931.866 643.020 L 931.866 619.072 C 931.866 610.656 927.345 606.770 920.958 606.770 C 915.832 606.770 912.080 609.118 910.245 612.829 L 909.866 612.829 C 908.102 609.005 904.976 606.770 900.270 606.770 C 895.606 606.770 892.161 609.005 890.675 612.829 L 890.203 612.829 L 890.203 607.232 L 884.893 607.232 L 884.893 643.020 Z M 956.937 643.768 C 964.205 643.768 969.516 640.129 971.197 634.726 L 965.876 633.230 C 964.482 636.961 961.243 638.827 956.937 638.827 C 950.479 638.827 946.029 634.655 945.773 626.986 L 971.751 626.986 L 971.751 624.659 C 971.751 611.332 963.826 606.770 956.373 606.770 C 946.686 606.770 940.248 614.408 940.248 625.408 C 940.248 636.408 946.593 643.768 956.937 643.768 Z M 945.773 622.240 C 946.142 616.673 950.079 611.701 956.373 611.701 C 962.340 611.701 966.163 616.181 966.163 622.240 L 945.773 622.240 Z M 999.340 643.020 L 1028.506 643.020 L 1028.506 637.894 L 1005.112 637.894 L 1005.112 621.676 L 1026.640 621.676 L 1026.640 616.550 L 1005.112 616.550 L 1005.112 600.425 L 1028.137 600.425 L 1028.137 595.299 L 999.340 595.299 L 999.340 643.020 Z M 1051.339 643.768 C 1058.238 643.768 1060.565 639.483 1061.775 637.525 L 1062.431 637.525 L 1062.431 643.020 L 1067.741 643.020 L 1067.741 595.299 L 1062.246 595.299 L 1062.246 612.921 L 1061.775 612.921 C 1060.565 611.056 1058.423 606.770 1051.431 606.770 C 1042.389 606.770 1036.146 613.947 1036.146 625.223 C 1036.146 636.592 1042.389 643.768 1051.339 643.768 Z M 1052.087 638.827 C 1045.188 638.827 1041.651 632.768 1041.651 625.131 C 1041.651 617.576 1045.096 611.701 1052.087 611.701 C 1058.792 611.701 1062.339 617.114 1062.339 625.131 C 1062.339 633.230 1058.699 638.827 1052.087 638.827 Z M 1092.998 657.188 C 1101.569 657.188 1108.468 653.271 1108.468 644.045 L 1108.468 607.232 L 1103.158 607.232 L 1103.158 612.921 L 1102.594 612.921 C 1101.384 611.056 1099.149 606.770 1092.158 606.770 C 1083.116 606.770 1076.873 613.947 1076.873 624.936 C 1076.873 636.121 1083.403 642.456 1092.065 642.456 C 1099.057 642.456 1101.292 638.355 1102.501 636.408 L 1102.973 636.408 L 1102.973 643.676 C 1102.973 649.632 1098.780 652.339 1092.998 652.339 C 1086.499 652.339 1084.213 648.915 1082.747 646.936 L 1078.369 650.011 C 1080.604 653.763 1085.012 657.188 1092.998 657.188 Z M 1092.814 637.525 C 1085.914 637.525 1082.378 632.307 1082.378 624.844 C 1082.378 617.576 1085.822 611.701 1092.814 611.701 C 1099.518 611.701 1103.065 617.114 1103.065 624.844 C 1103.065 632.768 1099.426 637.525 1092.814 637.525 Z M 1133.543 643.768 C 1140.811 643.768 1146.122 640.129 1147.803 634.726 L 1142.482 633.230 C 1141.088 636.961 1137.849 638.827 1133.543 638.827 C 1127.085 638.827 1122.636 634.655 1122.379 626.986 L 1148.357 626.986 L 1148.357 624.659 C 1148.357 611.332 1140.432 606.770 1132.979 606.770 C 1123.292 606.770 1116.854 614.408 1116.854 625.408 C 1116.854 636.408 1123.199 643.768 1133.543 643.768 Z M 1122.379 622.240 C 1122.748 616.673 1126.685 611.701 1132.979 611.701 C 1138.946 611.701 1142.770 616.181 1142.770 622.240 L 1122.379 622.240 Z M 1160.754 643.389 C 1163.060 643.389 1164.946 641.503 1164.946 639.196 C 1164.946 636.889 1163.060 635.003 1160.754 635.003 C 1158.447 635.003 1156.561 636.889 1156.561 639.196 C 1156.561 641.503 1158.447 643.389 1160.754 643.389 Z" fill="#011941"/>
  </g>
</svg>